PathFileType	4	(X/Y/Z)	Patient4_TMGait_0pt6_01_right_30.trc.trc
DataRate	CameraRate	NumFrames	NumMarkers	Units	OrigDataRate	OrigDataStartFrame	OrigNumFrames
84.848484848485	84.848484848485	4	33	mm	84.848484848485	71	       141
Frame#	Time	Sacral			L.Shoulder			Chest			R.Shoulder			Neck			R.ASIS			L.ASIS			R.Thigh.Superior			R.Thigh.Lateral			R.Thigh.Inferior			R.Patella			L.Thigh.Superior			L.Thigh.Lateral			L.Thigh.Inferior			L.Patella			L.Shank.Superior			L.Shank.Lateral			L.Shank.Inferior			R.Shank.Superior			R.Shank.Lateral			R.Shank.Inferior			R.Heel			R.Midfoot.Superior			R.Midfoot.Lateral			R.Toe			L.Heel			L.Midfoot.Lateral			L.Midfoot.Superior			L.Toe			L.Elbow			L.Wrist			R.Elbow			R.Wrist			
		X1	Y1	Z1	X2	Y2	Z2	X3	Y3	Z3	X4	Y4	Z4	X5	Y5	Z5	X6	Y6	Z6	X7	Y7	Z7	X8	Y8	Z8	X9	Y9	Z9	X10	Y10	Z10	X11	Y11	Z11	X12	Y12	Z12	X13	Y13	Z13	X14	Y14	Z14	X15	Y15	Z15	X16	Y16	Z16	X17	Y17	Z17	X18	Y18	Z18	X19	Y19	Z19	X20	Y20	Z20	X21	Y21	Z21	X22	Y22	Z22	X23	Y23	Z23	X24	Y24	Z24	X25	Y25	Z25	X26	Y26	Z26	X27	Y27	Z27	X28	Y28	Z28	X29	Y29	Z29	X30	Y30	Z30	X31	Y31	Z31	X32	Y32	Z32	X33	Y33	Z33	

71	36.735000000000	722.133605362490	1002.090633584985	516.083166225338	858.692083569640	1430.698303040904	324.745963164891	986.602465387437	1362.386029842086	466.714060443615	928.929410056779	1430.414530369319	651.922157112957	861.281767967610	1487.835222003364	480.539377274551	953.244656922978	934.149802739039	612.109851992330	918.380487426968	954.746597453490	338.478580843332	945.119111428279	720.697196361789	584.921569914612	838.266130870995	628.806260136343	645.829141043492	896.078023948859	563.296302344412	564.733475032155	875.186290603355	479.097534641772	568.060134275138	997.608684209534	775.031934514351	364.394756034627	948.753176779878	641.917411697284	292.440543880102	1058.931077211450	589.307525178141	345.922588946669	1087.860937276681	525.248814155837	344.551400719315	1074.222854698335	451.601335521261	339.329435175138	1010.295274928618	317.731478856279	297.844747681441	1104.345584141701	224.418927229848	350.183595725162	836.233553805092	395.147858377429	572.953604311609	750.866958233720	299.719326975812	630.728142961843	781.831622676244	202.102650802626	565.088749167609	633.897872050671	43.385443438678	525.127218363102	805.119039252403	96.610245249958	567.876100033183	714.314722365878	36.277032646820	601.833266181285	922.884524926826	41.757780251216	598.825159386896	1030.885050630563	44.738188021195	400.651637667404	1099.894187167987	47.337038167060	316.261140822994	1169.534540935933	126.755010596649	329.148446446521	1301.826732573401	99.578419011789	297.338972184356	722.491373463841	1099.094973642640	243.413947573137	672.311967260032	845.689367124234	264.410138764027	1075.309693647271	1120.920104725697	765.704358003739	1329.963398716401	1120.524648854499	728.351625161013	
72	36.746785714286	723.154773695751	1000.774903586322	513.850597451559	858.952208722373	1429.245572009933	322.595486055814	986.806658252517	1361.326900372460	464.776925439609	928.695921350719	1429.464891573364	649.803577207069	861.268136948854	1486.501358280722	478.303736749156	953.908572777652	932.698670183185	610.811988068789	919.996347745251	953.347600495617	336.969029013959	944.980794763696	719.038523284992	583.708603019188	837.548955356947	627.613321586138	644.442565391763	895.169845733018	561.634694800883	563.472622593566	873.537984175568	477.179649186886	566.606471848131	999.416205934184	773.154384803654	363.605388639783	949.311100901256	639.756951162245	293.138455465586	1059.169497586824	586.954480523446	346.698111064058	1086.749397546066	521.893381619318	346.281847863583	1072.116445790448	447.666573028809	341.041862842668	1005.747562767311	314.930661058274	299.905873456722	1097.578789937013	220.120358587929	353.162316216338	833.547153974138	393.544584127611	571.764928972390	747.110440553847	299.286821567347	629.885329218720	776.384727781917	201.207761644848	564.395762778317	626.805973775532	43.445858841626	525.082928525373	798.034461581668	96.549917444284	567.746561322642	707.192900843067	36.256158095183	601.735568511382	915.776517565044	41.521731848401	598.908092330670	1020.065959571893	43.078731151189	403.920808236193	1088.776589958489	44.435848912964	319.186996985499	1160.688415850273	121.290707979752	332.658320662138	1292.138598383473	90.338916239856	300.009837484823	721.260482223920	1098.510876679982	241.891404326190	669.168709166812	845.541152379644	263.708187835957	1076.644559469626	1121.055762136342	763.359269650685	1330.841221578968	1127.780293423753	725.889740023559	
73	36.758571428571	724.253114380394	999.359450280425	511.428555397654	859.323066798741	1427.696819959917	320.295420865861	987.060754440324	1360.279180448807	462.798222388067	928.338190422649	1428.497034126373	647.624312257745	861.270094885545	1485.141340899993	475.927665011991	954.724722992730	931.181035075705	609.494406918698	921.868734612995	951.938945058608	335.494160542157	945.243453812092	717.351123663403	582.442981154883	837.268534774278	626.309419673483	642.913891436347	894.787789236012	559.875583934844	562.108414205545	872.406004080121	475.059073320146	565.004973927919	1001.454825889734	771.072439199713	363.045570618533	950.132161665439	637.711405230737	293.730669067269	1059.409364410956	584.511686586966	347.837819854294	1085.482091713114	518.343139218032	348.265226291505	1069.843088116617	443.644623985031	342.771918615448	1001.056716793084	312.143932835163	301.609395349977	1090.402745137842	215.741124676702	356.025357388154	831.255143033735	391.831077304682	570.439668707324	743.661292066284	298.847094656498	628.936712372949	771.104502521838	200.293260193449	563.623494851106	619.731040400561	43.634622815171	525.046544969404	790.990566381842	96.488251259697	567.571498317649	700.108591995636	36.301077301696	601.651500185014	908.709747531794	41.231005991124	599.003054610102	1008.436854002302	41.477099957948	406.655861383957	1077.010215104914	41.731331848754	321.698405727735	1151.253783323071	115.822898179968	336.147040454347	1281.886138619599	80.952365447105	302.813055015121	720.740543647480	1097.519420674016	240.053597678730	667.311757084803	844.870413558191	262.510189673585	1077.463343932867	1120.885207030396	761.114220143022	1331.055024261319	1134.194038915196	723.546643644020	
74	36.770357142857	725.386561236168	997.915640787337	508.866131581874	859.816755845832	1426.117969437870	317.861283197993	987.374545809670	1359.291410368155	460.787942216707	927.888242477393	1427.565909037572	645.399021386203	861.320371477107	1483.824947407183	473.430214960686	955.666306752254	929.659479545313	608.127049101439	923.905722216183	950.597178716759	334.041606968445	945.879125749520	715.698080331837	581.081241620384	837.418640159350	624.950787315072	641.234101208574	894.915218207736	558.081382399875	560.624569602857	871.800129192187	472.775938353530	563.278582355726	1003.596342360868	768.879377135590	362.682239207977	951.129132100282	635.882698128651	294.122688009741	1059.600111118718	582.110936370768	349.203217150196	1084.085892926218	514.820023149614	350.325417002291	1067.515798694266	439.781810470130	344.385128459808	996.530024318084	309.520412632422	302.848258053806	1083.266484396448	211.572191215340	358.624996040001	829.344112281334	390.070928157823	568.995794692283	740.499505330168	298.477109189573	627.897461482496	766.000471446807	199.433488901612	562.801364970272	612.683343802510	44.041165003416	525.033739408493	784.022507506553	96.443872111300	567.374200424299	693.072994272812	36.451412567969	601.589065594087	901.694128835777	40.887550351785	599.105277348055	996.733846006939	40.061766604617	408.802109662536	1065.311670257285	39.410559899144	323.728993944220	1141.786674057667	110.730553218962	339.439798985340	1271.663187408762	72.067225600182	305.577746516353	720.986094512565	1096.146340826834	237.921722361022	666.760069559858	843.697447026424	260.811282834035	1077.742844734151	1120.407689912002	758.985652700685	1330.641538885467	1139.710456570811	721.338046129309	
